<svg width="130" height="24" viewBox="0 0 130 24" fill="none" xmlns="http://www.w3.org/2000/svg">
<path d="M8.888 23.448C7.16 23.448 5.63467 23.1387 4.312 22.52C2.98933 21.9013 1.95467 21.016 1.208 19.864C0.461333 18.712 0.0880001 17.3253 0.0880001 15.704V14.808H4.248V15.704C4.248 17.048 4.664 18.0613 5.496 18.744C6.328 19.4053 7.45867 19.736 8.888 19.736C10.3387 19.736 11.416 19.448 12.12 18.872C12.8453 18.296 13.208 17.56 13.208 16.664C13.208 16.0453 13.0267 15.544 12.664 15.16C12.3227 14.776 11.8107 14.4667 11.128 14.232C10.4667 13.976 9.656 13.7413 8.696 13.528L7.96 13.368C6.424 13.0267 5.10133 12.6 3.992 12.088C2.904 11.5547 2.06133 10.8613 1.464 10.008C0.888 9.15467 0.6 8.04533 0.6 6.68C0.6 5.31467 0.92 4.152 1.56 3.192C2.22133 2.21067 3.13867 1.464 4.312 0.952C5.50667 0.418666 6.904 0.151999 8.504 0.151999C10.104 0.151999 11.5227 0.429332 12.76 0.983999C14.0187 1.51733 15 2.328 15.704 3.416C16.4293 4.48267 16.792 5.82667 16.792 7.448V8.408H12.632V7.448C12.632 6.59467 12.4613 5.912 12.12 5.4C11.8 4.86667 11.3307 4.48267 10.712 4.248C10.0933 3.992 9.35733 3.864 8.504 3.864C7.224 3.864 6.27467 4.10933 5.656 4.6C5.05867 5.06933 4.76 5.72 4.76 6.552C4.76 7.10667 4.89867 7.576 5.176 7.96C5.47467 8.344 5.912 8.664 6.488 8.92C7.064 9.176 7.8 9.4 8.696 9.592L9.432 9.752C11.032 10.0933 12.4187 10.5307 13.592 11.064C14.7867 11.5973 15.7147 12.3013 16.376 13.176C17.0373 14.0507 17.368 15.1707 17.368 16.536C17.368 17.9013 17.016 19.1067 16.312 20.152C15.6293 21.176 14.648 21.9867 13.368 22.584C12.1093 23.16 10.616 23.448 8.888 23.448ZM28.1983 23.448C26.6196 23.448 25.2009 23.128 23.9423 22.488C22.6836 21.848 21.6916 20.92 20.9663 19.704C20.2409 18.488 19.8783 17.0267 19.8783 15.32V14.808C19.8783 13.1013 20.2409 11.64 20.9663 10.424C21.6916 9.208 22.6836 8.28 23.9423 7.64C25.2009 7 26.6196 6.68 28.1983 6.68C29.7769 6.68 31.1956 7 32.4543 7.64C33.7129 8.28 34.7049 9.208 35.4303 10.424C36.1556 11.64 36.5183 13.1013 36.5183 14.808V15.32C36.5183 17.0267 36.1556 18.488 35.4303 19.704C34.7049 20.92 33.7129 21.848 32.4543 22.488C31.1956 23.128 29.7769 23.448 28.1983 23.448ZM28.1983 19.864C29.4356 19.864 30.4596 19.4693 31.2703 18.68C32.0809 17.8693 32.4863 16.7173 32.4863 15.224V14.904C32.4863 13.4107 32.0809 12.2693 31.2703 11.48C30.4809 10.6693 29.4569 10.264 28.1983 10.264C26.9609 10.264 25.9369 10.6693 25.1263 11.48C24.3156 12.2693 23.9103 13.4107 23.9103 14.904V15.224C23.9103 16.7173 24.3156 17.8693 25.1263 18.68C25.9369 19.4693 26.9609 19.864 28.1983 19.864ZM40.24 23V0.599998H44.272V23H40.24ZM56.292 23.448C54.7133 23.448 53.2947 23.128 52.036 22.488C50.7773 21.848 49.7853 20.92 49.06 19.704C48.3347 18.488 47.972 17.0267 47.972 15.32V14.808C47.972 13.1013 48.3347 11.64 49.06 10.424C49.7853 9.208 50.7773 8.28 52.036 7.64C53.2947 7 54.7133 6.68 56.292 6.68C57.8707 6.68 59.2893 7 60.548 7.64C61.8067 8.28 62.7987 9.208 63.524 10.424C64.2493 11.64 64.612 13.1013 64.612 14.808V15.32C64.612 17.0267 64.2493 18.488 63.524 19.704C62.7987 20.92 61.8067 21.848 60.548 22.488C59.2893 23.128 57.8707 23.448 56.292 23.448ZM56.292 19.864C57.5293 19.864 58.5533 19.4693 59.364 18.68C60.1747 17.8693 60.58 16.7173 60.58 15.224V14.904C60.58 13.4107 60.1747 12.2693 59.364 11.48C58.5747 10.6693 57.5507 10.264 56.292 10.264C55.0547 10.264 54.0307 10.6693 53.22 11.48C52.4093 12.2693 52.004 13.4107 52.004 14.904V15.224C52.004 16.7173 52.4093 17.8693 53.22 18.68C54.0307 19.4693 55.0547 19.864 56.292 19.864ZM75.7898 23.448C74.2538 23.448 72.8564 23.128 71.5978 22.488C70.3604 21.848 69.3791 20.92 68.6538 19.704C67.9284 18.488 67.5658 17.016 67.5658 15.288V14.84C67.5658 13.112 67.9284 11.64 68.6538 10.424C69.3791 9.208 70.3604 8.28 71.5978 7.64C72.8564 7 74.2538 6.68 75.7898 6.68C77.3044 6.68 78.6058 6.94667 79.6938 7.48C80.7818 8.01333 81.6564 8.74933 82.3178 9.688C83.0004 10.6053 83.4484 11.6507 83.6618 12.824L79.7578 13.656C79.6724 13.016 79.4804 12.44 79.1818 11.928C78.8831 11.416 78.4564 11.0107 77.9018 10.712C77.3684 10.4133 76.6964 10.264 75.8858 10.264C75.0751 10.264 74.3391 10.4453 73.6778 10.808C73.0378 11.1493 72.5258 11.672 72.1418 12.376C71.7791 13.0587 71.5978 13.9013 71.5978 14.904V15.224C71.5978 16.2267 71.7791 17.08 72.1418 17.784C72.5258 18.4667 73.0378 18.9893 73.6778 19.352C74.3391 19.6933 75.0751 19.864 75.8858 19.864C77.1018 19.864 78.0191 19.5547 78.6378 18.936C79.2778 18.296 79.6831 17.464 79.8538 16.44L83.7578 17.368C83.4804 18.4987 83.0004 19.5333 82.3178 20.472C81.6564 21.3893 80.7818 22.1147 79.6938 22.648C78.6058 23.1813 77.3044 23.448 75.7898 23.448ZM92.0118 23.448C90.8811 23.448 89.8678 23.256 88.9718 22.872C88.0758 22.4667 87.3611 21.8907 86.8278 21.144C86.3158 20.376 86.0598 19.448 86.0598 18.36C86.0598 17.272 86.3158 16.3653 86.8278 15.64C87.3611 14.8933 88.0864 14.3387 89.0038 13.976C89.9424 13.592 91.0091 13.4 92.2038 13.4H96.5558V12.504C96.5558 11.7573 96.3211 11.1493 95.8518 10.68C95.3824 10.1893 94.6358 9.944 93.6118 9.944C92.6091 9.944 91.8624 10.1787 91.3718 10.648C90.8811 11.096 90.5611 11.6827 90.4118 12.408L86.6998 11.16C86.9558 10.3493 87.3611 9.61333 87.9158 8.952C88.4918 8.26933 89.2491 7.72533 90.1878 7.32C91.1478 6.89333 92.3104 6.68 93.6758 6.68C95.7664 6.68 97.4198 7.20267 98.6358 8.248C99.8518 9.29333 100.46 10.808 100.46 12.792V18.712C100.46 19.352 100.758 19.672 101.356 19.672H102.636V23H99.9478C99.1584 23 98.5078 22.808 97.9958 22.424C97.4838 22.04 97.2278 21.528 97.2278 20.888V20.856H96.6198C96.5344 21.112 96.3424 21.4533 96.0438 21.88C95.7451 22.2853 95.2758 22.648 94.6358 22.968C93.9958 23.288 93.1211 23.448 92.0118 23.448ZM92.7158 20.184C93.8464 20.184 94.7638 19.8747 95.4678 19.256C96.1931 18.616 96.5558 17.7733 96.5558 16.728V16.408H92.4918C91.7451 16.408 91.1584 16.568 90.7318 16.888C90.3051 17.208 90.0918 17.656 90.0918 18.232C90.0918 18.808 90.3158 19.2773 90.7638 19.64C91.2118 20.0027 91.8624 20.184 92.7158 20.184ZM105.584 23V7.128H109.552V8.92H110.128C110.362 8.28 110.746 7.81067 111.28 7.512C111.834 7.21333 112.474 7.064 113.2 7.064H115.12V10.648H113.136C112.112 10.648 111.269 10.9253 110.608 11.48C109.946 12.0133 109.616 12.8453 109.616 13.976V23H105.584ZM124.351 23C123.306 23 122.453 22.68 121.791 22.04C121.151 21.3787 120.831 20.504 120.831 19.416V10.456H116.863V7.128H120.831V2.2H124.863V7.128H129.215V10.456H124.863V18.712C124.863 19.352 125.162 19.672 125.759 19.672H128.831V23H124.351Z" fill="#1D2322"/>
</svg>
