<?xml version="1.0" encoding="utf-8"?><svg xmlns="http://www.w3.org/2000/svg" xmlns:xlink="http://www.w3.org/1999/xlink"><symbol fill="none" viewBox="0 0 130 24" id="logo" xmlns="http://www.w3.org/2000/svg"><path d="M8.888 23.448c-1.728 0-3.253-.31-4.576-.928-1.323-.619-2.357-1.504-3.104-2.656-.747-1.152-1.12-2.539-1.12-4.16v-.896h4.16v.896c0 1.344.416 2.357 1.248 3.04.832.661 1.963.992 3.392.992 1.45 0 2.528-.288 3.232-.864.725-.576 1.088-1.312 1.088-2.208 0-.619-.181-1.12-.544-1.504-.341-.384-.853-.693-1.536-.928-.661-.256-1.472-.49-2.432-.704l-.736-.16c-1.536-.341-2.859-.768-3.968-1.28-1.088-.533-1.93-1.227-2.528-2.08C.888 9.155.6 8.045.6 6.68c0-1.365.32-2.528.96-3.488.661-.981 1.579-1.728 2.752-2.24 1.195-.533 2.592-.8 4.192-.8s3.019.277 4.256.832c1.259.533 2.24 1.344 2.944 2.432.725 1.067 1.088 2.41 1.088 4.032v.96h-4.16v-.96c0-.853-.17-1.536-.512-2.048-.32-.533-.79-.917-1.408-1.152-.619-.256-1.355-.384-2.208-.384-1.28 0-2.23.245-2.848.736-.597.47-.896 1.12-.896 1.952 0 .555.139 1.024.416 1.408.299.384.736.704 1.312.96.576.256 1.312.48 2.208.672l.736.16c1.6.341 2.987.779 4.16 1.312 1.195.533 2.123 1.237 2.784 2.112.661.875.992 1.995.992 3.36 0 1.365-.352 2.57-1.056 3.616-.683 1.024-1.664 1.835-2.944 2.432-1.259.576-2.752.864-4.48.864Zm19.31 0c-1.578 0-2.997-.32-4.256-.96a7.199 7.199 0 0 1-2.976-2.784c-.725-1.216-1.088-2.677-1.088-4.384v-.512c0-1.707.363-3.168 1.088-4.384a7.199 7.199 0 0 1 2.976-2.784c1.259-.64 2.678-.96 4.256-.96 1.579 0 2.998.32 4.256.96a7.2 7.2 0 0 1 2.976 2.784c.726 1.216 1.088 2.677 1.088 4.384v.512c0 1.707-.362 3.168-1.088 4.384a7.2 7.2 0 0 1-2.976 2.784c-1.258.64-2.677.96-4.256.96Zm0-3.584c1.238 0 2.262-.395 3.072-1.184.81-.81 1.216-1.963 1.216-3.456v-.32c0-1.493-.405-2.635-1.216-3.424-.79-.81-1.813-1.216-3.072-1.216-1.237 0-2.261.405-3.072 1.216-.81.79-1.216 1.93-1.216 3.424v.32c0 1.493.406 2.645 1.216 3.456.81.79 1.835 1.184 3.072 1.184ZM40.24 23V.6h4.032V23H40.24Zm16.052.448c-1.579 0-2.997-.32-4.256-.96a7.199 7.199 0 0 1-2.976-2.784c-.725-1.216-1.088-2.677-1.088-4.384v-.512c0-1.707.363-3.168 1.088-4.384a7.199 7.199 0 0 1 2.976-2.784c1.259-.64 2.677-.96 4.256-.96 1.579 0 2.997.32 4.256.96a7.199 7.199 0 0 1 2.976 2.784c.725 1.216 1.088 2.677 1.088 4.384v.512c0 1.707-.363 3.168-1.088 4.384a7.199 7.199 0 0 1-2.976 2.784c-1.259.64-2.677.96-4.256.96Zm0-3.584c1.237 0 2.261-.395 3.072-1.184.81-.81 1.216-1.963 1.216-3.456v-.32c0-1.493-.405-2.635-1.216-3.424-.79-.81-1.813-1.216-3.072-1.216-1.237 0-2.261.405-3.072 1.216-.81.79-1.216 1.93-1.216 3.424v.32c0 1.493.405 2.645 1.216 3.456.81.79 1.835 1.184 3.072 1.184Zm19.498 3.584c-1.536 0-2.934-.32-4.192-.96a7.248 7.248 0 0 1-2.944-2.784c-.726-1.216-1.088-2.688-1.088-4.416v-.448c0-1.728.362-3.2 1.088-4.416a7.248 7.248 0 0 1 2.944-2.784c1.258-.64 2.656-.96 4.192-.96 1.514 0 2.816.267 3.904.8s1.962 1.27 2.624 2.208a7.391 7.391 0 0 1 1.344 3.136l-3.904.832a4.6 4.6 0 0 0-.576-1.728 3.201 3.201 0 0 0-1.28-1.216c-.534-.299-1.206-.448-2.016-.448s-1.547.181-2.208.544c-.64.341-1.152.864-1.536 1.568-.363.683-.544 1.525-.544 2.528v.32c0 1.003.181 1.856.544 2.56a4.023 4.023 0 0 0 1.536 1.568c.661.341 1.397.512 2.208.512 1.216 0 2.133-.31 2.752-.928.64-.64 1.045-1.472 1.216-2.496l3.904.928a8.788 8.788 0 0 1-1.44 3.104c-.662.917-1.536 1.643-2.624 2.176-1.088.533-2.39.8-3.904.8Zm16.222 0c-1.13 0-2.144-.192-3.04-.576-.896-.405-1.61-.981-2.144-1.728-.512-.768-.768-1.696-.768-2.784 0-1.088.256-1.995.768-2.72.533-.747 1.258-1.301 2.176-1.664.938-.384 2.005-.576 3.2-.576h4.352v-.896c0-.747-.235-1.355-.704-1.824-.47-.49-1.216-.736-2.24-.736-1.003 0-1.75.235-2.24.704-.49.448-.81 1.035-.96 1.76L86.7 11.16a6.41 6.41 0 0 1 1.216-2.208c.576-.683 1.333-1.227 2.272-1.632.96-.427 2.122-.64 3.488-.64 2.09 0 3.744.523 4.96 1.568 1.216 1.045 1.824 2.56 1.824 4.544v5.92c0 .64.298.96.896.96h1.28V23h-2.688c-.79 0-1.44-.192-1.952-.576a1.825 1.825 0 0 1-.768-1.536v-.032h-.608c-.086.256-.278.597-.576 1.024-.299.405-.768.768-1.408 1.088-.64.32-1.515.48-2.624.48Zm.704-3.264c1.13 0 2.048-.31 2.752-.928.725-.64 1.088-1.483 1.088-2.528v-.32h-4.064c-.747 0-1.334.16-1.76.48-.427.32-.64.768-.64 1.344 0 .576.224 1.045.672 1.408.448.363 1.098.544 1.952.544ZM105.584 23V7.128h3.968V8.92h.576c.234-.64.618-1.11 1.152-1.408.554-.299 1.194-.448 1.92-.448h1.92v3.584h-1.984c-1.024 0-1.867.277-2.528.832-.662.533-.992 1.365-.992 2.496V23h-4.032Zm18.767 0c-1.045 0-1.898-.32-2.56-.96-.64-.661-.96-1.536-.96-2.624v-8.96h-3.968V7.128h3.968V2.2h4.032v4.928h4.352v3.328h-4.352v8.256c0 .64.299.96.896.96h3.072V23h-4.48Z" fill="#1D2322"/></symbol></svg>